<svg width="30" height="30" viewBox="0 0 30 30" fill="none" xmlns="http://www.w3.org/2000/svg">
<g clip-path="url(#clip0_65_295)">
<path d="M15 0.9375C7.24594 0.9375 0.9375 7.24594 0.9375 15C0.9375 17.7281 1.71938 20.3587 3.20438 22.6425L1.01344 27.7556C0.939659 27.9278 0.919168 28.1182 0.954608 28.3022C0.990048 28.4861 1.07979 28.6553 1.21227 28.7877C1.34474 28.9202 1.51387 29.01 1.69784 29.0454C1.8818 29.0808 2.07217 29.0603 2.24437 28.9866L7.3575 26.7947C9.63015 28.278 12.2861 29.0661 15 29.0625C22.7541 29.0625 29.0625 22.7541 29.0625 15C29.0625 7.24594 22.7541 0.9375 15 0.9375ZM22.2188 20.0344C22.2188 20.0344 21.0487 21.5334 20.2031 21.8841C18.0562 22.7728 15.0234 21.8841 11.5688 18.4303C8.11594 14.9766 7.22625 11.9437 8.11594 9.79594C8.46656 8.95031 9.96656 7.78219 9.96656 7.78219C10.1732 7.62937 10.4272 7.55433 10.6837 7.57028C10.9402 7.58623 11.1829 7.69214 11.3691 7.86937L13.0659 9.56625C13.2407 9.74238 13.3388 9.98046 13.3388 10.2286C13.3388 10.4767 13.2407 10.7148 13.0659 10.8909L12 11.955C12 11.955 11.5687 13.2487 14.1591 15.84C16.7484 18.4303 18.0441 17.9991 18.0441 17.9991L19.1081 16.9341C19.2843 16.759 19.5226 16.6607 19.7709 16.6607C20.0193 16.6607 20.2576 16.759 20.4338 16.9341L22.1306 18.6309C22.4944 18.9956 22.5338 19.6266 22.2169 20.0334L22.2188 20.0344Z" fill="#79798A" fill-opacity="0.35"/>
</g>
<defs>
<clipPath id="clip0_65_295">
<rect width="30" height="30" fill="white"/>
</clipPath>
</defs>
</svg>
