                            <svg class="telegram-link-icon" width="27" height="23" viewBox="0 0 27 23" fill="none"
                                xmlns="http://www.w3.org/2000/svg">
                                <path
                                    d="M24.5967 1.14236C21.1501 2.56961 6.37243 8.69084 2.28923 10.3593C-0.449219 11.4279 1.15376 12.4297 1.15376 12.4297C1.15376 12.4297 3.49126 13.2311 5.49491 13.8322C7.49856 14.4334 8.56721 13.7654 8.56721 13.7654L17.9843 7.42034C21.3236 5.14966 20.5223 7.01966 19.7209 7.82101C17.9843 9.55764 15.1125 12.2958 12.7082 14.4999C11.6395 15.4349 12.1738 16.2366 12.6413 16.6372C14.378 18.1066 19.1198 21.112 19.3871 21.3125C20.7981 22.3113 23.5734 23.7493 23.9955 20.7114L25.6653 10.2256C26.1997 6.68581 26.734 3.41304 26.8008 2.47804C27.001 0.207361 24.5967 1.14236 24.5967 1.14236Z"
                                    fill="#BFA36C" />
                            </svg>